<?xml version="1.0" ?><svg viewBox="0 0 32 32" xmlns="http://www.w3.org/2000/svg"><title/><g id="next"><path d="M4.77,32H3.85A2.84,2.84,0,0,1,1,29.18V3.82A2.84,2.84,0,0,1,3.85,1h.92A5.39,5.39,0,0,1,7.46,2.42L21.89,13.86a3.69,3.69,0,0,1,0,5.28l-.08.06L7.47,30.58A5.41,5.41,0,0,1,4.77,32Zm0-29H3.85A.84.84,0,0,0,3,3.82V29.18a.84.84,0,0,0,.85.82h.92a6,6,0,0,0,1.37-.91L6.22,29l14.3-11.35a1.67,1.67,0,0,0,0-2.34L6.13,3.91A5.12,5.12,0,0,0,4.72,3Z"/><path d="M27,32a4,4,0,0,1-4-4V5a4,4,0,0,1,4-4,4,4,0,0,1,4,4V28A4,4,0,0,1,27,32ZM27,3a2,2,0,0,0-2,2V28a2,2,0,0,0,4,0V5a2,2,0,0,0-2-2Z"/></g></svg>