<svg width="32" height="32" xmlns="http://www.w3.org/2000/svg">

 <g>
  <title>background</title>
  <rect fill="none" id="canvas_background" height="402" width="582" y="-1" x="-1"/>
 </g>
 <g>
  <title>Layer 1</title>
  <path id="svg_6" d="m23.122574,3.214057c0.372,-0.404 0.703,-0.286 0.703,0.264l0,24c0,0.55 -0.331,0.668 -0.703,0.264l-10.607,-11.528c-0.372,-0.405 -0.365,-1.068 0.007,-1.473l10.6,-11.527z"/>
  <path id="svg_7" d="m23.531574,28.982057c-0.286,0 -0.717,-0.098 -1.146,-0.563l-10.606,-11.527c-0.727,-0.791 -0.724,-2.032 0.006,-2.827l10.6,-11.527c0.428,-0.466 0.859,-0.563 1.146,-0.563c0.623,-0.001 1.294,0.47 1.294,1.503l0,24c0,1.033 -0.671,1.504 -1.294,1.504zm-0.706,-23.966l-9.567,10.402c-0.025,0.027 -0.023,0.102 -0.006,0.119l9.573,10.404l0,-20.925z"/>
  <rect id="svg_8" height="27.141012" width="0.427044" y="1.883827" x="10.40098" fill-opacity="null" stroke-opacity="null" stroke-width="null" stroke="null" fill="null"/>
 </g>
</svg>